<?xml version="1.0" encoding="utf-8"?>
<!-- Generator: Adobe Illustrator 19.0.0, SVG Export Plug-In . SVG Version: 6.00 Build 0)  -->
<svg version="1.1" id="Capa_1" xmlns="http://www.w3.org/2000/svg" xmlns:xlink="http://www.w3.org/1999/xlink" x="0px" y="0px"
	 viewBox="-83.9 373.8 417.9 44.5" style="enable-background:new -83.9 373.8 417.9 44.5;" xml:space="preserve">
<g>
	<path d="M116.1,397.4c-0.5-2.5,0.5-7,2.3-9.3c1.9-2.6,3.9-3.9,7.2-4.4c6.3-0.9,12,4.3,12.2,10.6c0.1,3.3-0.2,6.6-2.3,9.3
		c-2.6,3.4-5.6,4.7-9.7,4.3c-0.9-0.1-1.5-0.2-2.4-0.5C118.7,405.9,116.9,401.8,116.1,397.4L116.1,397.4z M121.7,417.3
		c1.7,0.1,3.3,0.5,5.3,0.5c0.9,0,1.8,0,2.7-0.2c0.8-0.1,1.7-0.4,2.5-0.4c5.4-1.7,9-3.5,12.6-8.1c3.5-4.4,5.2-10.7,4.4-16.1
		c-1.8-11.2-10.8-19.1-22.3-19.1c-18.1,0-29.1,20.1-17.8,35.2c1.9,2.6,5.6,5.5,8.7,6.8C119.1,416.4,120.4,416.8,121.7,417.3z"/>
	<path d="M22.4,407.3v-23c4.1,0,7.5-0.1,10.9,2.2c5.1,3.5,5,15.2,0.1,18.5C30.1,407.2,26.3,407.3,22.4,407.3L22.4,407.3z M11,416.7
		c6.6,0,17.5,0.5,23.6-1.1c2.5-0.6,5.5-2.1,7.4-3.9c4.9-4.4,6.8-9.4,6.8-16c0-9.6-5.2-17.4-14.4-19.7c-6.1-1.5-16.9-1.1-23.4-1.1
		V416.7L11,416.7z"/>
	<path d="M70,407.3v-23c5.9,0,11.1,0,13.7,5.8c1.3,2.8,1.3,8.3,0,11.2C81.4,407,75.7,407.3,70,407.3L70,407.3z M58.6,416.7
		c6.7,0,17.4,0.5,23.5-1.1c9.1-2.3,14.3-10.2,14.3-19.5c0-6.9-1.7-11.8-6.9-16.4c-4.6-4-12-4.8-17.8-4.8H58.6L58.6,416.7L58.6,416.7
		z"/>
	<path d="M-83.9,416.7h11.5v-16.9h15.1v16.9c3.5,0,8,0.1,11.4,0l0.2-41.8h-11.5V391h-15.2v-16.1h-11.5V416.7z"/>
	<path d="M198.9,416.7c2.9,0,8.7,0.1,11.3,0c0.3-0.8,0.1-16.2,0.1-18.4l13.5,18.5h14.3l-16.8-21.5l15.4-20.4h-13.3l-13,18.6v-18.6
		H199L198.9,416.7L198.9,416.7z"/>
	<path d="M-17.5,382.1c0.5,0.3,1.1,3.9,1.4,4.7c0.5,1.5,1,3.1,1.4,4.7l2.9,9.5h-11.1c0.7-3.1,3.2-10.4,4.2-14
		C-18.4,386-17.5,383-17.5,382.1L-17.5,382.1z M-39.1,416.7h11.4l2.2-7.5h16.1l2.1,7.5h0.2H4.1l-14.3-41.8h-14.4L-39.1,416.7z"/>
	<path d="M173.5,417.3c1.6,0,3.3,0.5,5.1,0.5c1.9,0,3.5-0.4,5.1-0.5c0.3-0.2,2.5-0.7,3.1-1l2.6-1.2l0.1-0.1c0,0,0.1,0,0.1-0.1v-12.4
		c-0.3,0.2-1.4,1.5-2.3,2.3c-3.3,2.6-6.7,3.5-10.8,2.3c-2.1-0.6-4.1-2.2-5.3-4c-4.2-5.9-2-16.5,5.2-18.6c3.7-1,8-0.4,10.8,2.1
		c0.6,0.5,1.9,1.9,2.5,2.3v-12.5c-5.9-3-13.1-3.5-19.2-1c-5.1,2-9.7,7-11.5,12.1c-2.3,6.5-1.7,13.3,1.3,19.4
		c1.3,2.5,3.3,4.6,5.4,6.4C169.4,416.6,172.2,416.6,173.5,417.3z"/>
	<path d="M290.3,416.9l-0.2,0.4v0.3c0.1,0.5,0,0.1,0.2,0.3l5.1-0.1l0.3-0.5l1.5-12.2c0.3,0.5,3.3,11.8,3.6,12.4l0.1,0.3l3.8,0.1
		l0.3-0.4c0.5-2.7,3.5-11.1,3.5-12.7h0.1c0,2.2,1.1,10.6,1.6,12.9c0.2,0.5,4.4,0,5.2,0.3c0.2-0.2,0.2,0.2,0.2-0.6l-0.2-0.5
		c0.1-0.6-1.9-13.2-2.2-14.8c-0.1-0.8-0.6-4.5-0.8-5h-5.7c-0.3,0.6-0.8,2.4-1,3.2l-2.4,8.2c-0.1,0.3-0.2,0.5-0.2,0.9
		c-0.1,0.5,0,0.4-0.3,0.8c0-1.6-3.5-11.5-3.6-13.1h-5.8C293.3,398.2,290.3,415.9,290.3,416.9z"/>
	<path d="M321.1,417.3c1.9,0.6,2.6,1,4.7,1c0.9,0,1.7-0.1,2.6-0.3c0.7-0.2,1.6-0.7,2.2-0.8c0.8-0.7,1.6-1.3,2.3-2.3
		c0.6-0.9,1.1-2.4,1.1-3.5c0-5.2-2.6-5.8-6.7-7c-1.1-0.3-2.5-0.7-2.3-2.3c0.2-1.4,2-1.5,3.1-1.3c1.5,0.3,1.9,0.8,3.1,1.6l1.8-4.2
		l-0.1-0.1l-0.9-0.5c-4.7-2.4-10.6-1.8-12.2,3.2c-0.5,1.6-0.5,4,0.5,5.4c2.1,3,7.8,2.5,8.2,4.8c0.6,2.8-3,3.8-5.8,1.5
		c-0.5-0.4-1.5-1.5-1.7-1.6l-2.5,4.3C319,416,320.2,416.8,321.1,417.3z"/>
	<path d="M245.3,417.6l5.6,0.1l0.1-0.8v-7.2h6.8v-4.6H251v-3.5c1.2,0,6.4,0.2,7.1-0.1c0.3-0.7,0.1-3.6,0.1-4.6h-12.9L245.3,417.6
		L245.3,417.6z"/>
	<path d="M274.6,417.6c1.3,0.3,4.9,0.1,6.4,0.1c2.1,0,4.3,0,6.4,0l0.1-0.8v-4h-7.1v-16h-5.8V417.6L274.6,417.6z"/>
	<polygon points="262.8,417.7 268.6,417.8 268.6,396.9 262.8,396.9 	"/>
</g>
</svg>
